<svg fill="currentColor" height="127px" width="127px" version="1.1" id="Layer_1" xmlns="http://www.w3.org/2000/svg" xmlns:xlink="http://www.w3.org/1999/xlink" viewBox="0 0 512 512" xml:space="preserve"><g id="SVGRepo_bgCarrier" stroke-width="0"></g><g id="SVGRepo_tracerCarrier" stroke-linecap="round" stroke-linejoin="round"></g><g id="SVGRepo_iconCarrier"> <g> <g> <path d="M495.454,477.346c-6.98-6.972-16.555-16.546-34.654-16.546s-27.674,9.574-34.654,16.546 c-6.153,6.153-9.276,8.9-16.179,9.011l50.466-298.232c1.135-6.699-0.444-13.568-4.378-19.106 c-3.934-5.538-9.907-9.284-16.606-10.411l-29.85-5.043V76.8c0-14.14-11.46-25.6-25.6-25.6h-76.8V25.6V0h-25.6h-51.2h-25.6v25.6 v25.6H128c-14.14,0-25.6,11.46-25.6,25.6v76.766l-29.867,5.043c-6.699,1.135-12.672,4.873-16.606,10.411 c-3.934,5.538-5.513,12.407-4.378,19.106l50.466,298.232c-6.903-0.111-10.027-2.859-16.179-9.011 C78.874,470.374,69.299,460.8,51.2,460.8c-18.099,0-27.674,9.574-34.654,16.546C10.274,483.627,7.202,486.4,0,486.4V512 c18.099,0,27.674-9.574,34.654-16.546c6.272-6.281,9.344-9.054,16.546-9.054s10.274,2.773,16.546,9.054 C74.726,502.426,84.301,512,102.4,512c18.074,0,27.648-9.549,34.628-16.546c6.298-6.281,9.37-9.054,16.572-9.054 c7.202,0,10.274,2.773,16.546,9.054C177.126,502.426,186.701,512,204.8,512c18.099,0,27.674-9.574,34.654-16.546 c6.272-6.281,9.344-9.054,16.546-9.054s10.274,2.773,16.546,9.054C279.526,502.426,289.101,512,307.2,512 s27.674-9.574,34.654-16.546c6.272-6.281,9.344-9.054,16.546-9.054s10.274,2.773,16.546,9.054 C381.926,502.426,391.501,512,409.6,512s27.674-9.574,34.654-16.546c6.272-6.281,9.344-9.054,16.546-9.054 s10.274,2.773,16.546,9.054C484.326,502.426,493.901,512,512,512v-25.6C504.798,486.4,501.726,483.627,495.454,477.346z M230.4,25.6h51.2v25.6h-51.2V25.6z M243.2,462.72c-10.18,3.123-16.751,9.532-21.854,14.635 c-6.272,6.272-9.344,9.045-16.546,9.045c-7.202,0-10.274-2.773-16.546-9.054c-6.98-6.972-16.555-16.546-34.654-16.546 c-13.15,0-21.717,5.077-28.151,10.513L76.8,183.851l166.4-28.092V462.72z M256,128c-1.425,0-2.85,0.119-4.267,0.358L128,149.248 V76.8h64v25.6h25.6V76.8h25.6v25.6h25.6V76.8h25.6v25.6H320V76.8h64v72.448l-123.733-20.89C258.85,128.119,257.425,128,256,128z M386.552,471.322c-6.426-5.444-15.002-10.522-28.151-10.522c-18.099,0-27.674,9.574-34.654,16.546 c-6.272,6.281-9.344,9.054-16.546,9.054s-10.274-2.773-16.546-9.054c-5.094-5.094-11.665-11.511-21.854-14.635V155.759 l166.4,28.092L386.552,471.322z"></path> </g> </g> </g></svg>